<svg viewBox="225 202.5 150.00000000000014 194.99999999999983" fill="none" xmlns="http://www.w3.org/2000/svg" xmlns:xlink="http://www.w3.org/1999/xlink" overflow="visible" width="150.00000000000014px" height="194.99999999999983px"><g id="Master/Stickers/Apple"><g id="apple"><g id="stickers_expanded"><path id="Path" d="M363.16 290.16C355.37 277.44 344.54 269.81 331.85 268.11C322.26 266.82 306.92 270.36 299.06 277.49C296.747 276.21 294.218 275.365 291.6 275C281.91 272.21 269.88 275.08 259.37 278.27C245 282.56 234.72 292 229.61 305.5C220.61 329.35 229.61 365.77 248.85 383.44C261.21 394.77 275.66 396.22 291.85 387.79C296.909 393.135 303.992 396.092 311.35 395.93C314.384 395.905 317.405 395.523 320.35 394.79C346.09 388.58 362.83 374.95 370.11 354.3C377.17 334.26 374.38 308.49 363.16 290.16Z" fill="#FC6E47"/><path id="Path_2" d="M359.68 339.79H359.29C358.768 339.686 358.309 339.379 358.014 338.936C357.72 338.493 357.614 337.951 357.72 337.43C360.377 323.118 357.442 308.332 349.52 296.12C348.904 295.2 349.15 293.956 350.07 293.34C350.989 292.724 352.234 292.97 352.85 293.89C361.342 306.999 364.487 322.863 361.64 338.22C361.437 339.139 360.621 339.793 359.68 339.79Z" fill="white"/><path id="Path_3" d="M345.26 289.9C344.751 289.901 344.261 289.708 343.89 289.36C342.842 288.373 341.719 287.47 340.53 286.66C339.616 286.039 339.378 284.794 340 283.88C340.621 282.966 341.866 282.729 342.78 283.35C344.141 284.279 345.428 285.312 346.63 286.44C347.017 286.803 347.245 287.305 347.262 287.836C347.279 288.367 347.084 288.883 346.72 289.27C346.341 289.673 345.812 289.901 345.26 289.9Z" fill="white"/><path id="Path_4" d="M347.65 206.16C336.92 199.35 319.81 210.56 312.27 217.44C301.27 227.44 294.68 241.16 293.17 257.05C293.118 257.682 293.362 258.302 293.83 258.73C294.198 259.06 294.676 259.242 295.17 259.24C295.303 259.249 295.437 259.249 295.57 259.24C309.97 256.29 321.49 252.68 330.77 248.24C337.77 244.89 355.96 233.42 356.7 220.71C357 215.05 354 210.18 347.65 206.16Z" fill="#007D43"/><path id="Path_5" d="M300.079 290V290C298.975 290 298.079 289.105 298.079 288C298.429 262.1 285.079 236 271.919 225.8C271.323 225.372 271.01 224.652 271.102 223.924C271.194 223.196 271.677 222.577 272.361 222.311C273.045 222.046 273.82 222.176 274.379 222.65C292.089 236.44 302.379 266.74 302.079 288.06C302.047 289.141 301.161 290.001 300.079 290V290Z" fill="#3B3B3B"/><path id="Path_6" d="M312.8 253C311.972 253.002 311.228 252.493 310.93 251.72C308.46 245.32 305.54 241.85 300.85 239.72C300.154 239.457 299.662 238.829 299.572 238.09C299.483 237.352 299.81 236.625 300.423 236.202C301.036 235.78 301.832 235.733 302.49 236.08C309.63 239.29 312.65 245.08 314.66 250.27C315.054 251.297 314.545 252.45 313.52 252.85C313.291 252.944 313.047 252.995 312.8 253V253Z" fill="#00591A"/><path id="Path_7" d="M326.61 248.19C325.756 248.19 324.997 247.647 324.72 246.84C322.24 239.59 316.66 232.65 308.58 226.76C308.003 226.339 307.695 225.641 307.771 224.931C307.848 224.22 308.298 223.605 308.951 223.316C309.605 223.027 310.363 223.109 310.94 223.53C319.68 229.9 325.75 237.53 328.51 245.53C328.682 246.033 328.646 246.583 328.412 247.059C328.177 247.536 327.763 247.9 327.26 248.07C327.051 248.145 326.832 248.186 326.61 248.19Z" fill="#00591A"/><path id="Path_8" d="M339.39 241.4C338.623 241.4 337.923 240.961 337.59 240.27C335.38 235.75 329.19 224.6 319.43 218.69C318.792 218.333 318.4 217.657 318.406 216.926C318.413 216.195 318.818 215.526 319.462 215.181C320.107 214.836 320.888 214.87 321.5 215.27C332.17 221.72 338.82 233.68 341.19 238.52C341.671 239.511 341.26 240.706 340.27 241.19C339.996 241.326 339.695 241.398 339.39 241.4V241.4Z" fill="#00591A"/><path id="Path_9" d="M349.66 233.18C348.82 233.181 348.069 232.658 347.78 231.87C346.175 227.508 344.011 223.374 341.34 219.57C338.771 215.896 335.299 212.944 331.26 211C330.279 210.489 329.899 209.28 330.41 208.3C330.92 207.32 332.129 206.939 333.11 207.45C337.69 209.679 341.625 213.042 344.54 217.22C347.446 221.335 349.799 225.813 351.54 230.54C351.915 231.578 351.378 232.724 350.34 233.1C350.12 233.17 349.889 233.197 349.66 233.18Z" fill="#00591A"/><path id="Path_10" d="M299.94 291.67H299.78C293.06 291.67 286.94 291.32 280.11 287.58C279.141 287.05 278.785 285.834 279.315 284.865C279.845 283.896 281.061 283.54 282.03 284.07C288.03 287.37 293.41 287.65 299.79 287.67C305.218 287.815 310.593 286.576 315.41 284.07C316.379 283.54 317.595 283.896 318.125 284.865C318.655 285.834 318.299 287.05 317.33 287.58C311.98 290.411 305.992 291.82 299.94 291.67V291.67Z" fill="#C44538"/></g></g></g></svg>