<svg viewBox="184.10000000000014 236.84210526315792 1867.3 1763.157894736842" xmlns="http://www.w3.org/2000/svg" xmlns:xlink="http://www.w3.org/1999/xlink" overflow="visible" width="1867.3px" height="1763.157894736842px"><defs><rect id="masterspot-illustrationusing-computer-path-1" x="0" y="0" width="1400" height="928"/></defs><g id="Master/Spot Illustration/Using Computer" stroke="none" stroke-width="1" fill="none" fill-rule="evenodd"><g id="Left-Character" transform="translate(0.000000, 200.000000)"><g id="Chair" transform="translate(100.000000, 800.000000)"><path d="M941.542884,676.160734 L684.053737,676.160734 C667.19581,676.160734 653.52976,662.494684 653.52976,645.636757 C653.52976,642.085519 654.149465,638.56152 655.36099,635.223331 C664.554049,609.893135 686.568189,591.395917 713.103656,586.705484 L904.099227,552.944933 C917.970005,550.493122 928.080175,538.43914 928.080175,524.353337 C928.080175,510.903711 917.177099,500.000634 903.727473,500.000634 L567.63737,500.000634 L567.63737,500.000634 L509.050884,206.429423 C499.718882,159.667667 458.668452,126 410.984618,126 L222,126 L222,126 L322,676 L377,676 L283,1000 L363,1000 L458.798636,842.123848 C476.9287,812.245502 509.34179,794 544.290535,794 L877.510771,794 C909.261552,794 939.125614,809.078135 957.977065,834.626812 L1080,1000 L1080,1000 L1199.73532,1000 L1026.29203,723.079836 C1008.0083,693.88797 975.987908,676.160734 941.542884,676.160734 Z" id="Chair-back" fill="#EFB489"/><path d="M1127.5,945 C1118.90685,954.547949 1106.66502,960 1093.81956,960 L933,960 L933,960 L873,843 L1073,843 L1128.57249,914.100096 C1135.75998,923.295861 1135.30777,936.324697 1127.5,945 Z" id="Path-62" fill="#D8704E"/><path d="M1025.60177,828.345507 L1149.4168,830.811935 C1160.4603,831.031925 1169.59117,822.257733 1169.81116,811.214229 C1169.95021,804.233541 1166.43878,797.68565 1160.54702,793.939104 L1081.11027,743.425535 L1081.11027,743.425535 L1014.64628,725.775102 L997.228042,790.562474 C992.926305,806.562839 1002.40992,823.020943 1018.41028,827.32268 C1020.75717,827.953646 1023.17203,828.297106 1025.60177,828.345507 Z" id="Fill-21" fill="#DBDAC6" transform="translate(1104.021496, 779.004184) rotate(-64.000000) translate(-1104.021496, -779.004184)"/><path d="M754.516682,500.226325 L400,501.101129 L400,501.101129 L400,564.729184 C400,626.163668 449.888201,675.965099 511.429722,675.965099 L767.168735,675.965099 L994.228998,869 L1079,769 L906.250555,569.358016 C868.148199,525.324126 812.74685,500.082636 754.516682,500.226325 Z" id="Fill-27" fill="#A9B4FF"/><path d="M725.225328,500.249252 L380,501.101129 L380,501.101129 L380,564.729184 C380,626.163668 429.888201,675.965099 491.429722,675.965099 L747.168735,675.965099 L964.228998,899 L1059,814 L886.38816,581.146286 C848.561584,530.118161 788.744576,500.092512 725.225328,500.249252 Z" id="Fill-27" fill="#A9B4FF"/><path d="M1030.66176,871.064172 L1143.23814,871.119407 C1154.28383,871.124827 1163.24253,862.174916 1163.24795,851.129223 C1163.25126,844.377839 1159.84817,838.080465 1154.19874,834.383814 L1080.90569,786.425138 L1080.90569,786.425138 L1005.88974,783.491259 L1000.8048,838.292413 C999.273995,854.790087 1011.40704,869.405055 1027.90472,870.935857 C1028.82127,871.020903 1029.74126,871.06372 1030.66176,871.064172 Z" id="Fill-21" fill="#DBDAC6" transform="translate(1104.077933, 827.321807) rotate(-44.000000) translate(-1104.077933, -827.321807)"/><path d="M750.542884,676.160734 L493.053737,676.160734 C476.19581,676.160734 462.52976,662.494684 462.52976,645.636757 C462.52976,642.085519 463.149465,638.56152 464.36099,635.223331 C473.554049,609.893135 495.568189,591.395917 522.103656,586.705484 L713.099227,552.944933 C726.970005,550.493122 737.080175,538.43914 737.080175,524.353337 C737.080175,510.903711 726.177099,500.000634 712.727473,500.000634 L296.63737,500.000634 L296.63737,500.000634 L222,126 L216.238733,127.944428 C172.640706,142.658762 144.711081,185.224899 148.568623,231.077041 L186,676 L186,676 L92,1000 L172,1000 L267.798636,842.123848 C285.9287,812.245502 318.34179,794 353.290535,794 L686.510771,794 C718.261552,794 748.125614,809.078135 766.977065,834.626812 L889,1000 L889,1000 L1008.73532,1000 L835.292033,723.079836 C817.008304,693.88797 784.987908,676.160734 750.542884,676.160734 Z" id="Chair-front" fill="#D8704E"/><path d="M807.28633,514.212474 C843.23986,526.423106 878.837899,559.124207 914.261219,612.17694 L915.276,613.702 L1058.693,808.552 L1144.14881,790.424888 C1152.89368,788.569916 1161.96675,791.338796 1168.18382,797.732891 L1168.49746,798.061134 C1178.22865,808.424211 1177.81883,824.65456 1167.65281,834.515661 L1167.34176,834.81252 L1142.73813,857.91593 L1137.26187,852.08407 L1161.8655,828.98066 C1169.11241,822.175638 1169.47063,810.7843 1162.6656,803.537393 C1158.44526,799.043 1152.22562,797.027679 1146.18606,798.174934 L1145.80884,798.250761 L1055.30726,817.448067 L908.778544,618.371122 L908.6654,618.209172 C874.125209,566.073035 839.757911,534.097468 805.744278,522.143635 L804.71367,521.787526 L807.28633,514.212474 Z" id="Path-61" fill="#000" fill-rule="nonzero"/></g><g id="Head" transform="translate(560.999650, 572.000000)" fill="#CCB2FF"><path d="M173.4931,66.499221 C182.1061,110.758221 197.9031,184.720221 112.0001,190.645221 C47.3491,195.103221 34.1221,133.336221 28.0001,98.645221 C19.0001,47.645221 36.0001,13.645221 84.0001,2.64522101 C149.3581,-12.333779 168.3391,40.016221 173.4931,66.499221"/><path d="M140,217 L140,172 L66,172 L64,214 L-6.39488462e-13,246.644721 L37.2,279.966721 C78.318,316.799721 141.503,313.346721 178.363,272.252721 L201.333,246.644721 L140,217 Z" id="Neck"/></g><g id="Hair" transform="translate(403.999650, 378.000000) scale(1 1)"><g id="Hair/Afro" stroke="none" stroke-width="1" fill="none" fill-rule="evenodd"><path d="M220,426 L266,426 C265.875248,382.000719 265.875248,360.000719 266,360 C336.086028,359.59579 470,307.042002 470,209 C470,116 423.889301,0 279.735683,0 C193.832599,0 136.196769,33.0396476 106.828194,99.1189427 C48.9427313,118.372981 20,158.328928 20,218.986784 C20,342.570102 73.1570657,364.708416 181.930952,370.146691 C206.643651,371.38223 219.333333,390 220,426 Z" id="Oval" fill="#CCB2FF"/></g></g><g id="Face" transform="translate(592.999650, 622.000000) scale(1 1)" fill="#000"><defs><path d="M16,0.828427125 C24.836556,0.828427125 32,7.99187113 32,16.8284271 C32,25.6649831 24.836556,32.8284271 16,32.8284271 C7.163444,32.8284271 0,25.6649831 0,16.8284271 C0,7.99187113 7.163444,0.828427125 16,0.828427125 Z" id="facedark-glasses-path-1"/><path d="M16.8284271,0.828427125 C25.6649831,0.828427125 32.8284271,7.99187113 32.8284271,16.8284271 C32.8284271,25.6649831 25.6649831,32.8284271 16.8284271,32.8284271 C7.99187113,32.8284271 0.828427125,25.6649831 0.828427125,16.8284271 C0.828427125,7.99187113 7.99187113,0.828427125 16.8284271,0.828427125 Z" id="facedark-glasses-path-3"/></defs><g id="Face/Dark Glasses" stroke="none" stroke-width="1" fill="none" fill-rule="evenodd"><path d="M139.505488,21.7624637 L147.358805,20.2375363 L147.914623,23.1292784 C150.492,36.6861902 151.956285,46.6187181 152.640849,56.8252335 C153.601715,71.1512888 152.68093,83.6925106 149.422756,94.7127057 C141.400988,121.844902 119.647922,138.009871 81.4351761,140.907001 L80.2721732,140.990729 L79.7278268,133.009271 C115.453825,130.572709 134.63761,116.504402 141.751032,92.4445228 C144.707273,82.445563 145.561191,70.815079 144.658782,57.3606006 C143.998859,47.5214545 142.57044,37.8441959 140.038812,24.5363568 L139.505488,21.7624637 Z" id="Stroke-9" fill="#000" fill-rule="nonzero"/><g id="Group" transform="translate(85.000000, 41.000000) rotate(-5.000000) translate(-85.000000, -41.000000) translate(12.000000, 17.000000)"><path d="M122,0 C135.254834,0 146,10.745166 146,24 C146,37.254834 135.254834,48 122,48 C110.108321,48 100.236654,39.3512987 98.3319809,28.0008768 L96.6680191,28.0008768 C94.7633455,39.3512987 84.891679,48 73,48 C61.108321,48 51.2366545,39.3512987 49.3319809,28.0008768 L15,28 C11.2145483,28 8.13090132,31.0047834 8.00405902,34.7593502 L8,35 C8,37.209139 6.209139,39 4,39 C1.790861,39 0,37.209139 0,35 C0,26.8205929 6.54678637,20.1702698 14.6861718,20.0032178 L15,20 L49.3318133,20.000122 C51.2360754,8.64920863 61.1079722,0 73,0 C84.8920278,0 94.7639246,8.64920863 96.6681867,20.000122 L98.3318133,20.000122 C100.236075,8.64920863 110.107972,0 122,0 Z" id="Glasses" fill="#FFA896"/><g id="Path" transform="translate(106.000000, 7.171573)"><mask id="facedark-glasses-mask-2" fill="#ffffff"><use xlink:href="#facedark-glasses-path-1" fill="#ffffff"/></mask><use id="Mask" fill="#006AD6" xlink:href="#facedark-glasses-path-1"/><path d="M29.8284271,5.82842712 L35.4852814,11.4852814 L8.48528137,38.4852814 L2.82842712,32.8284271 L29.8284271,5.82842712 Z M25,-3 L30.6568542,2.65685425 L3.65685425,29.6568542 L-2,24 L25,-3 Z" id="Combined-Shape" fill-opacity=".5" fill="#FFF" fill-rule="nonzero" mask="url(#facedark-glasses-mask-2)"/></g><g id="Path" transform="translate(56.171573, 7.171573)"><mask id="facedark-glasses-mask-4" fill="#ffffff"><use xlink:href="#facedark-glasses-path-3" fill="#ffffff"/></mask><use id="Mask" fill="#006AD6" xlink:href="#facedark-glasses-path-3"/><path d="M30.8284271,5.82842712 L36.4852814,11.4852814 L9.48528137,38.4852814 L3.82842712,32.8284271 L30.8284271,5.82842712 Z M25,-2 L30.6568542,3.65685425 L3.65685425,30.6568542 L-2,25 L25,-2 Z" id="Combined-Shape" fill-opacity=".5" fill="#FFF" fill-rule="nonzero" mask="url(#facedark-glasses-mask-4)"/></g></g></g></g><g id="Torso" transform="translate(0.000000, 372.000000)"><mask id="masterspot-illustrationusing-computer-mask-2" fill="#ffffff"><use xlink:href="#masterspot-illustrationusing-computer-path-1" fill="#ffffff"/></mask><g id="Mask"/><g mask="url(#masterspot-illustrationusing-computer-mask-2)"><g transform="translate(100.000000, 288.000000) scale(1 1)" id="Upper Body"><g id="Upper Body/Sweater" stroke="none" stroke-width="1" fill="none" fill-rule="evenodd"><g id="Group" transform="translate(303.000000, 99.000000)"><g id="Group-2" transform="translate(0.000208, 0.953597)"><path d="M154.628592,583.713803 C130.326592,601.921803 107.262592,596.840803 93.801592,577.620803 L31.297592,448.372803 C1.00159199,405.113803 -7.87640801,350.385803 7.19259199,299.768803 L47.934592,162.521803 C60.074592,121.622803 88.360592,87.4388028 126.264592,67.8578028 L186.140592,36.9268028 C168.213592,26.9358028 179.659592,-6.46519721 206.571592,1.10680279 C245.881592,12.1678028 266.698592,17.6378028 302.130592,4.67080279 C328.303592,-4.90819721 339.958592,32.4048028 325.942592,38.3628028 L397.792592,73.4468028 C441.866592,94.9678028 473.299592,135.908803 482.707592,184.045803 L511.168592,329.676803 C517.094592,360.005803 513.909592,391.410803 502.011592,419.931803 L461.129592,557.939803 C449.476592,585.876803 422.611592,597.159803 390.503592,576.782803 C369.097592,563.198136 359.929659,550.952669 362.999792,540.046403 C300.333125,569.379736 238.999792,569.379736 178.999792,540.046403 C184.850992,552.601336 176.727259,567.157136 154.628592,583.713803 Z" id="Sweater" fill="#CCB465"/><polygon id="Stroke-17" fill="#000" fill-rule="nonzero" points="185.599792 553.846403 190.399792 560.246403 126.399792 608.246403 121.599792 601.846403"/><polygon id="Stroke-19" fill="#000" fill-rule="nonzero" points="365.452957 553.660282 432.957957 591.558482 429.041627 598.534323 361.536627 560.636123"/></g><polygon id="Stroke-13" fill="#000" fill-rule="nonzero" points="107.638237 357.337702 160.638237 473.337702 153.361763 476.662298 100.361763 360.662298"/><polygon id="Stroke-15" fill="#000" fill-rule="nonzero" points="410.195864 374.763656 417.804136 377.236344 378.804136 497.236344 371.195864 494.763656"/><path d="M311.959218,40.214251 L316.025182,47.103949 C305.286114,53.4416231 292.739105,57.1593681 278.77186,58.6059162 C260.891758,60.4577077 241.849374,58.5507969 223.187874,54.2496131 C218.400246,53.1461395 214.00676,51.9630827 210.099752,50.7780619 L209.099115,50.4711228 C208.290051,50.2200762 207.543364,49.9811845 206.861886,49.7568103 L205.441172,49.2774748 L205.129618,49.1673961 L207.840782,41.6408039 L208.334544,41.8130638 L209.366626,42.1590291 L210.164002,42.4183049 C210.85404,42.6400117 211.607587,42.8755133 212.421748,43.1224538 C216.161253,44.2566698 220.380653,45.3928498 224.984642,46.4539972 C242.858001,50.5735271 261.065948,52.3968771 277.94773,50.6484787 C290.545825,49.3437297 301.769446,46.0732964 311.297244,40.5997069 L311.959218,40.214251 Z" id="Stroke-21" fill="#000" fill-rule="nonzero"/></g></g></g></g></g></g><g id="Speech-Bubble" transform="translate(1345.000000, 674.500000) scale(-1, 1) translate(-1345.000000, -674.500000) translate(1041.000000, 261.000000)" fill="#000" fill-rule="nonzero"><path d="M304,0 C471.894564,0 608,136.105436 608,304 C608,413.178395 550.445987,508.91433 464.0228,562.522965 C542.239199,640.275222 555.390585,728.731256 503.314385,826.874863 L503.314385,826.874863 L496.247593,823.125137 L497.763047,820.235629 C547.130951,724.987662 532.933407,640.21071 455.000901,564.875954 L456.94879,566.779078 C412.020686,592.985671 359.763735,608 304,608 C136.105436,608 0,471.894564 0,304 C0,136.105436 136.105436,0 304,0 Z M304,8 C140.523714,8 8,140.523714 8,304 C8,467.476286 140.523714,600 304,600 C467.476286,600 600,467.476286 600,304 C600,140.523714 467.476286,8 304,8 Z" id="Combined-Shape"/></g><g id="Object" transform="translate(1347.000000, 565.000000) rotate(-10.000000) translate(-1347.000000, -565.000000) translate(1047.000000, 265.000000) scale(1.2 1.2)"><g id="Object/Pills" stroke="none" stroke-width="1" fill="none" fill-rule="evenodd"><g id="Group" transform="translate(167.778138, 154.049490) rotate(-55.000000) translate(-167.778138, -154.049490) translate(151.778138, 114.049490)"><path d="M31.712,39.641 L-2.34479103e-13,39.641 L-2.34479103e-13,15.857 C-2.34479103e-13,7.1 7.1,4.26325641e-14 15.857,4.26325641e-14 C24.613,4.26325641e-14 31.712,7.1 31.712,15.857 L31.712,39.641 Z" id="Fill-1" fill="#EDEDDD"/><path d="M15.8566,79.2806 L15.8566,79.2806 C7.0996,79.2806 0.000599999999,72.1816 0.000599999999,63.4256 L0.000599999999,39.6406 L31.7116,39.6406 L31.7116,63.4256 C31.7116,72.1816 24.6136,79.2806 15.8566,79.2806" id="Fill-4" fill="#FFA896"/></g><g id="Group-Copy-4" transform="translate(337.778138, 217.049490) rotate(135.000000) translate(-337.778138, -217.049490) translate(321.778138, 177.049490)"><path d="M31.712,39.641 L-2.34479103e-13,39.641 L-2.34479103e-13,15.857 C-2.34479103e-13,7.1 7.1,4.26325641e-14 15.857,4.26325641e-14 C24.613,4.26325641e-14 31.712,7.1 31.712,15.857 L31.712,39.641 Z" id="Fill-1" fill="#EDEDDD"/><path d="M15.8566,79.2806 L15.8566,79.2806 C7.0996,79.2806 0.000599999999,72.1816 0.000599999999,63.4256 L0.000599999999,39.6406 L31.7116,39.6406 L31.7116,63.4256 C31.7116,72.1816 24.6136,79.2806 15.8566,79.2806" id="Fill-4" fill="#FFA896"/></g><g id="Group-Copy" transform="translate(162.778138, 332.049490) rotate(190.000000) translate(-162.778138, -332.049490) translate(146.778138, 292.049490)"><path d="M31.712,39.641 L-2.34479103e-13,39.641 L-2.34479103e-13,15.857 C-2.34479103e-13,7.1 7.1,4.26325641e-14 15.857,4.26325641e-14 C24.613,4.26325641e-14 31.712,7.1 31.712,15.857 L31.712,39.641 Z" id="Fill-1" fill="#EDEDDD"/><path d="M15.8566,79.2806 L15.8566,79.2806 C7.0996,79.2806 0.000599999999,72.1816 0.000599999999,63.4256 L0.000599999999,39.6406 L31.7116,39.6406 L31.7116,63.4256 C31.7116,72.1816 24.6136,79.2806 15.8566,79.2806" id="Fill-4" fill="#73C8FF"/></g><g id="Group-Copy-5" transform="translate(265.778138, 259.049490) rotate(-90.000000) translate(-265.778138, -259.049490) translate(249.778138, 219.049490)"><path d="M31.712,39.641 L-2.34479103e-13,39.641 L-2.34479103e-13,15.857 C-2.34479103e-13,7.1 7.1,4.26325641e-14 15.857,4.26325641e-14 C24.613,4.26325641e-14 31.712,7.1 31.712,15.857 L31.712,39.641 Z" id="Fill-1" fill="#EDEDDD"/><path d="M15.8566,79.2806 L15.8566,79.2806 C7.0996,79.2806 0.000599999999,72.1816 0.000599999999,63.4256 L0.000599999999,39.6406 L31.7116,39.6406 L31.7116,63.4256 C31.7116,72.1816 24.6136,79.2806 15.8566,79.2806" id="Fill-4" fill="#73C8FF"/></g><g id="Group-Copy-2" transform="translate(153.778138, 243.049490) rotate(75.000000) translate(-153.778138, -243.049490) translate(137.778138, 203.049490)"><path d="M31.712,39.641 L-2.34479103e-13,39.641 L-2.34479103e-13,15.857 C-2.34479103e-13,7.1 7.1,4.26325641e-14 15.857,4.26325641e-14 C24.613,4.26325641e-14 31.712,7.1 31.712,15.857 L31.712,39.641 Z" id="Fill-1" fill="#FFA896"/><path d="M15.8566,79.2806 L15.8566,79.2806 C7.0996,79.2806 0.000599999999,72.1816 0.000599999999,63.4256 L0.000599999999,39.6406 L31.7116,39.6406 L31.7116,63.4256 C31.7116,72.1816 24.6136,79.2806 15.8566,79.2806" id="Fill-4" fill="#FFEBA1"/></g><g id="Group-Copy-6" transform="translate(350.778138, 316.049490) rotate(-140.000000) translate(-350.778138, -316.049490) translate(334.778138, 276.049490)"><path d="M31.712,39.641 L-2.34479103e-13,39.641 L-2.34479103e-13,15.857 C-2.34479103e-13,7.1 7.1,4.26325641e-14 15.857,4.26325641e-14 C24.613,4.26325641e-14 31.712,7.1 31.712,15.857 L31.712,39.641 Z" id="Fill-1" fill="#FFA896"/><path d="M15.8566,79.2806 L15.8566,79.2806 C7.0996,79.2806 0.000599999999,72.1816 0.000599999999,63.4256 L0.000599999999,39.6406 L31.7116,39.6406 L31.7116,63.4256 C31.7116,72.1816 24.6136,79.2806 15.8566,79.2806" id="Fill-4" fill="#FFEBA1"/></g><g id="Group-Copy-3" transform="translate(265.778138, 166.049490) rotate(45.000000) translate(-265.778138, -166.049490) translate(249.778138, 126.049490)"><path d="M31.712,39.641 L-2.34479103e-13,39.641 L-2.34479103e-13,15.857 C-2.34479103e-13,7.1 7.1,4.26325641e-14 15.857,4.26325641e-14 C24.613,4.26325641e-14 31.712,7.1 31.712,15.857 L31.712,39.641 Z" id="Fill-1" fill="#D0DDDF"/><path d="M15.8566,79.2806 L15.8566,79.2806 C7.0996,79.2806 0.000599999999,72.1816 0.000599999999,63.4256 L0.000599999999,39.6406 L31.7116,39.6406 L31.7116,63.4256 C31.7116,72.1816 24.6136,79.2806 15.8566,79.2806" id="Fill-4" fill="#EDEDDD"/></g><g id="Group-Copy-7" transform="translate(251.778138, 347.049490) rotate(-59.000000) translate(-251.778138, -347.049490) translate(235.778138, 307.049490)"><path d="M31.712,39.641 L-2.34479103e-13,39.641 L-2.34479103e-13,15.857 C-2.34479103e-13,7.1 7.1,4.26325641e-14 15.857,4.26325641e-14 C24.613,4.26325641e-14 31.712,7.1 31.712,15.857 L31.712,39.641 Z" id="Fill-1" fill="#D0DDDF"/><path d="M15.8566,79.2806 L15.8566,79.2806 C7.0996,79.2806 0.000599999999,72.1816 0.000599999999,63.4256 L0.000599999999,39.6406 L31.7116,39.6406 L31.7116,63.4256 C31.7116,72.1816 24.6136,79.2806 15.8566,79.2806" id="Fill-4" fill="#EDEDDD"/></g></g></g><g id="Table" transform="translate(847.000000, 1451.000000)"><path d="M433,549 L518.585349,181.838855 C527.027173,145.623427 559.310352,120 596.496662,120 L769.503338,120 C806.689648,120 838.972827,145.623427 847.414651,181.838855 L933,549 L933,549 L993,549 L893,80 L473,80 L373,549 L433,549 Z" id="Path-59" fill="#E7D6A0"/><path d="M1180,0 L1180,40 L893,80 C893,103.195959 874.195959,122 851,122 L721.955,122 L813,549 L753,549 L667.414651,181.838855 C658.972827,145.623427 626.689648,120 589.503338,120 L589.503338,120 L416.496662,120 C379.310352,120 347.027173,145.623427 338.585349,181.838855 L338.585349,181.838855 L253,549 L193,549 L293,80 L0,40 L0,0 L1180,0 Z" id="Combined-Shape" fill="#CCB465"/></g><g id="Laptop" transform="translate(878.000000, 1135.518879)"><path d="M30,315.481121 C13.4314575,315.481121 -5.09561708e-13,302.049664 -5.1159077e-13,285.481121 L296.721,285.481 L400.627834,-3.69482223e-13 C416.227133,5.6776808 424.31877,22.8820126 418.744017,38.5183914 L320,315.477 L320,315.481121 L30,315.481121 Z" id="Combined-Shape" fill="#6F858E"/><path d="M383.180508,37.2777668 L390.687253,40.0434097 L302.163932,280.320996 C300.173765,285.722877 295.085682,289.345069 289.35233,289.477371 L289.027128,289.481121 L20,289.481121 L20,281.481121 L289.027128,281.481121 C291.4571,281.481121 293.638051,280.016852 294.565732,277.788563 L294.657187,277.555354 L383.180508,37.2777668 Z" id="Path-68" fill="#000" fill-rule="nonzero"/></g><g id="Plant" transform="translate(1536.000000, 1000.000000)"><rect id="Rectangle" fill="#6F858E" x="50" y="432" width="200" height="20"/><path d="M150,0 C191.421356,0 225,22.3857625 225,50 C225,56.0966351 223.363268,61.9384175 220.366762,67.3407096 C253.34879,85.3421364 275,115.648304 275,150 C275,191.207608 243.844077,226.593732 199.349114,241.904866 C199.776875,244.538309 200,247.243097 200,250 C200,277.614237 177.614237,300 150,300 C122.385763,300 100,277.614237 100,250 C100,247.243097 100.223125,244.538309 100.652302,241.902707 C56.1559228,226.593732 25,191.207608 25,150 C25,115.648304 46.6512099,85.3421364 79.6321006,67.3387212 C76.6367315,61.9384175 75,56.0966351 75,50 C75,22.3857625 108.578644,0 150,0 Z" id="Combined-Shape" fill="#8ED1B0" fill-rule="nonzero"/><path d="M150,54 C154.334914,54 157.864543,57.4478378 157.996193,61.7508207 L158,62 L158,377 C158,381.418278 154.418278,385 150,385 C145.665086,385 142.135457,381.552162 142.003807,377.249179 L142,377 L142,62 C142,57.581722 145.581722,54 150,54 Z" id="Path-98" fill="#CAEFDD" fill-rule="nonzero"/><path d="M25.6155281,352 L274.384472,352 C285.430167,352 294.384472,360.954305 294.384472,372 C294.384472,373.635236 294.183925,375.2643 293.787322,376.850713 L283.787322,416.850713 C281.561487,425.754053 273.561825,432 264.384472,432 L35.6155281,432 C26.4381753,432 18.4385131,425.754053 16.2126781,416.850713 L6.21267813,376.850713 C3.53370359,366.134814 10.0489175,355.276125 20.7648156,352.59715 C22.3512277,352.200547 23.980292,352 25.6155281,352 Z" id="Rectangle" fill="#DAE6EB"/></g></g></svg>